<svg xmlns="http://www.w3.org/2000/svg" viewBox="0 0 600 500"><rect width="600" height="500" fill="#eee7da"/><rect x="60" y="50" width="85" height="85" rx="18" fill="#72a7ff"/><rect x="180" y="50" width="85" height="85" rx="18" fill="#171717"/><rect x="300" y="50" width="85" height="85" rx="18" fill="#72a7ff"/><rect x="420" y="50" width="85" height="85" rx="18" fill="#171717"/><rect x="60" y="170" width="85" height="85" rx="18" fill="#171717"/><rect x="180" y="170" width="85" height="85" rx="18" fill="#72a7ff"/><rect x="300" y="170" width="85" height="85" rx="18" fill="#171717"/><rect x="420" y="170" width="85" height="85" rx="18" fill="#72a7ff"/><rect x="60" y="290" width="85" height="85" rx="18" fill="#72a7ff"/><rect x="180" y="290" width="85" height="85" rx="18" fill="#171717"/><rect x="300" y="290" width="85" height="85" rx="18" fill="#72a7ff"/><rect x="420" y="290" width="85" height="85" rx="18" fill="#171717"/><rect x="60" y="410" width="85" height="85" rx="18" fill="#171717"/><rect x="180" y="410" width="85" height="85" rx="18" fill="#72a7ff"/><rect x="300" y="410" width="85" height="85" rx="18" fill="#171717"/><rect x="420" y="410" width="85" height="85" rx="18" fill="#72a7ff"/><rect x="160" y="110" width="280" height="300" rx="85" fill="#0b0b0b" opacity=".92"/><text x="300" y="255" text-anchor="middle" font-family="Arial Black,Arial" font-size="42" fill="#f7f2e8">NOCTRA</text><text x="300" y="305" text-anchor="middle" font-family="Arial,Helvetica" font-size="24" fill="#72a7ff">COMMUNITY 03</text></svg>